{"glyphs":{"0":{"ha":844,"x_min":39,"x_max":801,"o":"m 753 855 l 753 856 q 801 575 801 730 q 718 181 801 357 q 645 75 697 123 q 534 12 594 27 q 458 3 497 3 q 233 74 346 3 q 99 255 146 143 q 44 471 68 331 q 157 942 39 752 q 271 1039 236 1017 q 415 1077 340 1083 q 623 1008 531 1069 q 750 855 715 948 l 753 855 m 462 719 l 464 718 q 444 741 467 741 q 421 726 428 741 q 387 532 387 650 q 403 338 387 453 l 411 332 q 432 350 426 332 q 466 640 466 560 q 462 719 466 679 z "},"1":{"ha":822,"x_min":159,"x_max":685,"o":"m 685 535 l 684 535 q 656 266 685 436 q 626 117 632 123 q 551 30 610 63 q 432 0 498 0 q 317 44 362 0 q 231 238 231 128 q 245 389 231 261 q 261 532 253 464 q 283 647 274 636 q 268 659 283 662 l 242 659 q 162 724 181 663 q 159 769 159 757 q 238 974 159 893 q 316 1032 257 993 q 379 1070 359 1061 q 455 1088 415 1088 q 611 984 550 1088 q 677 769 662 899 q 685 534 682 719 l 685 535 z "},"2":{"ha":844,"x_min":75,"x_max":765,"o":"m 743 679 q 632 451 711 547 q 440 319 553 355 l 443 304 q 516 307 455 304 q 598 310 577 310 q 705 291 674 310 q 765 169 765 255 q 730 80 765 110 q 556 12 664 26 q 377 5 501 5 q 191 61 255 23 q 106 162 132 97 q 83 268 84 219 q 155 489 82 343 q 309 659 195 568 q 415 742 413 742 l 402 749 q 229 703 331 703 q 177 709 196 703 q 79 818 97 737 q 125 957 75 901 q 404 1083 240 1083 q 516 1068 463 1083 q 688 918 618 1039 q 746 715 748 813 q 743 679 746 696 z "},"3":{"ha":844,"x_min":71,"x_max":772,"o":"m 648 569 l 650 569 q 664 547 644 551 q 699 536 693 542 q 769 372 769 483 q 758 274 769 327 q 669 118 741 191 q 505 25 596 46 q 374 8 438 8 q 139 102 214 8 q 93 241 91 162 q 105 317 94 283 q 128 354 120 344 q 157 378 142 373 q 187 383 172 383 q 255 369 203 383 q 320 355 306 355 q 370 410 365 355 q 317 456 359 447 q 240 471 291 460 q 196 528 200 486 q 191 565 191 543 q 214 630 191 607 q 302 667 225 641 q 364 727 361 686 q 325 765 357 754 q 249 749 300 767 q 192 731 197 731 q 110 771 150 731 q 71 859 71 812 q 229 1051 71 965 q 387 1088 295 1088 q 626 1014 523 1088 q 769 825 756 922 q 772 783 772 805 q 648 569 772 635 z "},"4":{"ha":844,"x_min":31,"x_max":813,"o":"m 813 402 l 812 402 q 748 295 812 323 q 705 253 705 295 q 696 124 705 162 q 513 3 666 3 q 437 15 471 3 q 335 170 354 45 q 334 207 334 173 q 324 246 334 237 q 87 310 163 248 q 31 447 31 369 q 65 592 31 507 q 121 728 83 637 q 304 1033 221 945 q 463 1081 349 1081 q 569 1068 520 1081 q 724 949 677 1025 q 760 787 760 892 q 726 546 760 674 q 807 479 791 535 q 813 402 813 462 m 347 554 l 346 554 q 389 527 354 527 q 421 542 414 527 q 434 622 434 575 q 426 750 434 669 q 370 643 407 715 q 347 554 340 581 z "},"5":{"ha":844,"x_min":82,"x_max":761,"o":"m 738 963 q 748 918 748 940 q 727 848 748 878 q 553 756 641 756 q 507 761 528 756 l 443 795 q 436 758 433 784 q 434 718 438 728 q 432 701 436 712 q 428 681 428 689 q 434 669 428 675 q 723 549 617 677 q 761 369 761 467 q 694 153 761 237 q 373 5 577 5 q 312 7 325 5 q 163 63 206 18 q 110 196 109 109 q 189 317 112 316 q 291 321 223 319 q 374 365 346 325 q 372 418 381 374 q 319 441 351 441 q 268 432 308 441 q 217 422 227 422 q 182 430 199 422 q 83 630 82 482 q 89 730 83 664 q 116 895 108 839 q 210 1021 140 986 q 508 1092 335 1085 q 650 1060 588 1095 q 738 963 712 1025 z "},"6":{"ha":844,"x_min":79,"x_max":765,"o":"m 673 99 l 671 99 q 448 3 568 3 q 297 39 380 3 q 86 342 120 117 q 79 445 79 387 q 151 813 79 643 q 392 1066 238 1020 q 460 1077 429 1077 q 575 1032 528 1077 q 622 925 622 987 q 539 763 622 847 q 403 647 523 746 q 451 651 408 645 q 538 658 501 658 q 658 625 617 658 q 765 377 765 539 q 738 215 765 295 q 673 99 711 135 m 443 428 q 430 444 441 440 q 391 449 425 445 q 365 402 369 436 q 358 340 362 381 q 370 263 357 279 q 400 272 377 259 q 441 428 438 339 l 443 428 z "},"7":{"ha":844,"x_min":102,"x_max":742,"o":"m 738 739 q 696 529 733 696 q 655 308 660 362 q 589 114 643 193 q 452 14 535 34 q 408 11 422 11 q 245 90 298 11 q 221 217 221 139 q 278 495 221 340 q 398 692 336 650 q 391 711 408 703 q 248 688 286 688 q 102 859 102 688 q 105 896 102 871 q 251 1054 140 1001 q 402 1081 380 1081 q 666 1008 584 1080 q 742 806 742 941 q 738 737 742 775 l 738 739 z "},"8":{"ha":844,"x_min":60,"x_max":784,"o":"m 701 101 q 568 19 645 34 q 398 1 474 1 q 131 103 226 1 q 60 302 60 196 q 97 440 60 376 q 218 557 116 474 q 154 581 173 573 q 112 610 123 596 q 68 748 68 666 q 223 1028 68 930 q 411 1084 312 1084 q 591 1050 502 1084 q 654 1005 621 1038 q 707 942 679 974 q 741 814 741 891 q 704 667 741 738 q 609 560 667 596 q 654 534 615 549 q 697 515 693 520 q 784 315 784 417 q 701 101 784 200 m 445 828 q 423 848 445 850 q 381 806 395 839 q 364 749 370 768 q 362 699 364 682 q 383 662 364 671 q 448 828 459 738 l 445 828 m 440 384 l 441 383 q 400 403 430 403 q 359 256 353 353 q 370 231 361 245 q 433 286 395 240 q 448 343 448 319 q 440 384 448 365 z "},"9":{"ha":844,"x_min":52,"x_max":791,"o":"m 782 572 l 783 572 q 625 163 745 359 q 344 8 523 -4 q 259 36 298 11 q 211 95 219 61 q 203 166 203 128 q 268 330 203 261 q 346 389 295 358 q 281 392 298 388 q 159 458 215 410 q 76 566 102 507 q 53 689 52 622 q 87 839 54 764 q 167 961 120 915 q 445 1088 274 1088 q 528 1080 487 1088 q 733 938 647 1057 q 791 722 791 858 q 782 572 791 671 m 475 771 l 477 771 q 444 814 462 814 q 429 809 436 814 q 387 693 387 783 q 389 652 387 667 q 410 624 394 630 q 455 633 440 611 q 483 726 482 673 q 475 771 483 746 z "}," ":{"ha":381,"x_min":0,"x_max":0,"o":""},"!":{"ha":502,"x_min":48,"x_max":458,"o":"m 430 1043 l 432 1044 q 458 948 458 1002 q 434 812 458 906 q 411 670 410 718 q 379 403 381 497 q 286 347 366 358 q 240 343 261 343 q 129 383 167 343 q 91 519 97 415 q 95 607 95 560 q 88 757 95 659 q 80 903 80 855 q 102 1069 80 995 l 105 1065 q 125 1099 118 1091 q 161 1127 140 1121 q 208 1133 182 1133 q 325 1115 233 1133 q 430 1043 402 1089 m 373 226 q 394 139 394 187 q 377 53 394 97 q 208 -15 327 -15 q 157 -12 182 -15 q 50 140 61 38 l 50 140 q 48 196 52 159 q 188 316 76 291 q 294 298 270 306 q 373 226 351 278 z "},"\"":{"ha":581,"x_min":95,"x_max":553,"o":"m 290 1093 l 290 1092 q 298 1013 312 1061 q 245 878 290 967 q 196 858 214 858 q 176 862 187 858 q 135 888 144 880 q 112 940 116 907 q 102 994 110 949 q 95 1046 95 1027 q 143 1110 95 1097 q 230 1125 240 1125 q 290 1093 268 1125 m 528 1092 l 530 1091 q 536 1012 553 1058 q 485 877 528 969 q 436 856 453 856 q 414 861 425 856 q 373 886 383 878 q 350 938 354 906 q 340 993 349 948 q 334 1044 334 1025 q 381 1108 334 1096 q 468 1123 478 1123 q 528 1092 507 1123 z "},"#":{"ha":647,"x_min":75,"x_max":580,"o":"m 297 844 l 298 783 l 361 782 l 358 844 l 297 844 m 308 666 q 286 564 312 587 q 248 554 278 557 q 195 595 208 550 q 184 669 191 607 q 124 670 154 670 q 82 720 83 679 q 114 769 80 745 q 182 782 127 778 q 180 839 182 801 q 112 850 129 842 q 80 910 75 865 q 123 957 86 948 q 180 960 151 959 q 187 1031 182 1010 q 234 1083 199 1078 q 275 1069 263 1085 q 290 1043 282 1057 q 297 960 293 1033 l 351 960 q 426 1080 355 1080 q 477 957 471 1080 q 543 955 522 967 q 579 903 579 934 q 569 862 579 885 q 524 846 553 847 q 475 846 531 846 l 481 790 q 572 771 554 794 q 577 734 576 767 q 539 677 580 688 q 472 674 536 677 q 477 632 477 654 q 426 549 477 558 q 410 547 418 547 q 365 579 377 547 q 357 639 359 596 q 347 671 355 671 q 308 666 338 671 z "},"$":{"ha":251,"x_min":46,"x_max":279,"o":"m 276 763 l 279 763 q 256 692 279 726 q 185 648 230 652 q 181 615 178 633 q 202 521 181 594 q 223 432 223 448 q 178 368 223 388 q 165 365 170 365 q 114 448 125 365 q 109 517 109 487 q 131 652 109 571 q 67 676 89 652 q 46 715 46 700 q 57 743 46 728 q 80 757 67 757 q 113 746 87 757 q 144 735 139 735 q 166 761 166 735 q 133 788 166 775 q 78 814 109 798 q 46 885 46 836 q 75 935 49 908 q 129 963 101 961 q 112 1021 112 1008 q 127 1065 112 1040 q 155 1078 135 1078 q 189 1068 172 1078 q 203 1040 203 1055 q 192 982 196 1016 q 196 965 192 974 q 211 967 202 967 q 261 945 218 967 q 278 920 275 934 q 267 888 278 903 q 241 874 256 874 q 196 886 238 874 q 162 886 176 892 q 154 869 150 880 q 187 842 154 854 q 246 817 242 821 q 276 763 263 806 z "},"%":{"ha":1148,"x_min":48,"x_max":1097,"o":"m 1078 1095 l 1078 1093 q 1097 1024 1097 1065 q 1084 956 1097 989 q 926 745 1048 867 q 731 551 829 648 q 515 286 684 497 q 291 30 380 117 q 177 -14 248 -14 q 54 71 84 -14 q 48 121 48 97 q 109 257 48 191 q 225 368 166 313 q 817 1043 497 641 q 895 1107 877 1095 q 983 1136 938 1136 q 1033 1119 1009 1127 q 1078 1095 1063 1110 m 211 1112 l 211 1114 q 285 1125 245 1125 q 398 1097 347 1125 q 475 1010 453 1068 q 481 967 481 995 q 443 831 481 889 q 287 754 391 754 q 82 886 109 771 q 75 942 75 916 q 211 1112 75 1065 m 794 361 q 873 373 831 373 q 989 344 937 373 q 1069 255 1046 313 q 1076 208 1076 238 q 1035 65 1076 127 q 874 -15 982 -15 q 738 20 784 -5 q 660 125 678 54 q 652 184 652 157 q 794 361 652 312 z "},"&":{"ha":669,"x_min":64,"x_max":613,"o":"m 161 546 q 148 564 165 561 q 123 572 124 569 q 65 700 67 613 q 146 900 64 820 q 376 986 233 986 q 561 912 502 986 q 598 803 598 866 q 569 715 598 749 q 523 692 556 692 q 470 703 511 692 q 418 714 430 714 q 380 671 383 714 q 421 633 388 644 q 451 627 430 630 q 482 622 471 624 q 516 577 512 613 q 520 549 520 565 q 502 498 520 516 q 433 470 494 490 q 383 422 387 455 q 414 394 392 395 q 474 406 434 392 q 520 419 513 419 q 583 388 554 419 q 613 319 613 357 q 489 167 611 234 q 366 140 437 139 q 178 196 257 142 q 65 346 78 267 q 64 379 64 355 q 161 546 64 494 m 325 1196 l 324 1197 q 351 1204 327 1197 q 359 1202 353 1200 q 365 1201 365 1205 q 421 1115 421 1181 q 376 1036 421 1055 q 351 1032 366 1032 q 278 1104 278 1032 q 325 1196 286 1186 m 418 -45 q 381 -93 408 -72 q 291 -57 319 -101 q 281 1 281 -26 q 290 44 281 26 q 346 72 300 72 q 411 41 389 72 q 418 -45 430 -11 z "},"'":{"ha":287,"x_min":46,"x_max":332,"o":"m 309 1091 q 321 1075 309 1091 q 319 1017 332 1059 q 163 854 279 941 q 142 847 155 852 q 123 842 129 842 q 72 871 98 842 q 50 933 46 900 q 74 1038 61 984 q 142 1110 94 1096 q 234 1122 223 1122 q 309 1091 286 1122 z "},"(":{"ha":565,"x_min":42,"x_max":522,"o":"m 507 1072 l 505 1072 q 522 987 522 1038 q 515 937 522 957 q 381 542 381 719 q 408 387 381 460 q 462 257 414 344 q 505 131 505 176 q 467 37 505 82 q 330 -20 418 -20 q 268 -11 297 -20 q 180 71 215 5 q 117 176 125 166 q 68 290 103 215 q 42 500 42 391 q 195 1021 42 782 q 395 1148 275 1148 q 507 1072 485 1148 z "},")":{"ha":553,"x_min":38,"x_max":511,"o":"m 406 968 l 404 968 q 511 564 511 802 q 444 227 511 377 q 286 -4 411 105 q 204 -19 242 -19 q 114 19 143 -19 q 76 87 89 45 q 64 165 75 95 q 102 238 79 187 q 142 310 124 286 q 185 584 185 471 q 125 817 185 722 q 65 919 80 889 q 41 1035 38 980 q 217 1156 72 1122 q 245 1160 231 1160 q 344 1088 304 1160 q 406 968 376 1028 z "},"*":{"ha":632,"x_min":91,"x_max":551,"o":"m 188 1081 l 189 1081 q 227 1096 210 1096 q 317 948 278 1096 q 351 1035 334 991 q 410 1097 380 1097 q 443 1081 426 1097 q 470 1029 470 1053 q 394 930 470 998 q 456 940 413 933 q 504 945 489 945 q 549 882 551 945 q 489 827 546 827 q 398 842 467 827 q 472 727 472 784 q 445 679 472 697 q 418 671 432 671 q 357 724 384 671 q 321 813 350 738 q 231 666 289 666 q 215 670 223 666 q 172 722 172 688 q 246 844 172 767 q 196 829 240 843 q 143 820 162 820 q 91 876 95 820 q 142 938 94 938 q 197 928 158 938 q 253 919 237 918 q 195 971 223 945 q 166 1024 166 997 q 188 1081 166 1048 z "},"+":{"ha":629,"x_min":29,"x_max":599,"o":"m 423 734 l 425 735 q 452 618 429 694 q 504 621 493 621 q 581 587 560 621 q 599 500 599 546 q 577 418 599 451 q 513 384 553 391 q 436 370 474 377 q 426 319 426 353 l 426 319 q 419 253 426 295 q 350 153 413 210 q 293 154 336 155 q 238 166 259 153 q 193 263 193 195 q 196 313 193 276 q 197 362 199 344 q 99 379 148 370 q 35 443 44 394 q 29 477 29 458 q 54 564 29 513 q 87 587 63 579 q 124 603 117 596 q 204 610 173 598 q 199 673 199 644 q 246 803 199 754 q 286 827 261 818 q 332 842 310 835 q 394 803 372 840 q 423 734 408 769 z "},",":{"ha":301,"x_min":27,"x_max":338,"o":"m 297 173 l 298 173 q 338 46 338 124 q 324 -50 338 1 q 225 -159 282 -151 q 187 -159 227 -159 q 151 -150 165 -159 q 128 -91 128 -123 q 139 -45 128 -71 q 29 35 53 -27 q 27 60 27 48 q 79 189 27 117 q 181 215 123 215 q 297 173 257 215 z "},"-":{"ha":576,"x_min":50,"x_max":543,"o":"m 513 610 l 512 610 q 543 504 543 565 q 541 468 543 486 q 527 425 530 432 q 494 389 516 400 q 319 370 429 370 q 218 372 301 370 q 121 372 157 373 q 80 391 83 389 q 54 426 60 403 q 52 463 54 434 q 50 498 50 485 q 106 600 50 573 q 233 633 150 632 q 364 644 336 636 q 443 639 403 641 q 513 610 487 633 z "},".":{"ha":423,"x_min":41,"x_max":374,"o":"m 153 276 l 151 276 q 214 286 180 286 q 368 195 331 286 q 374 146 374 177 q 346 49 374 89 q 230 -4 309 -4 q 118 15 144 4 q 49 93 64 34 q 41 147 41 123 q 153 276 41 237 z "},"/":{"ha":660,"x_min":12,"x_max":640,"o":"m 541 1095 l 539 1095 q 635 1021 614 1084 q 594 787 640 918 q 505 569 549 678 q 272 35 425 350 q 161 -15 241 -15 q 76 4 110 -15 q 12 136 12 53 q 54 309 12 195 q 315 990 140 531 q 458 1117 376 1107 q 500 1110 467 1112 q 541 1095 527 1106 z "},":":{"ha":426,"x_min":56,"x_max":391,"o":"m 169 754 l 167 754 q 230 764 196 764 q 384 673 347 764 q 391 624 391 655 q 362 527 391 566 q 246 475 325 475 q 136 489 148 485 q 64 571 84 507 q 56 621 56 598 q 169 754 56 715 m 294 270 l 295 270 q 350 238 338 249 q 384 173 370 218 q 387 140 387 155 q 320 15 387 59 q 207 -7 260 -7 q 118 15 155 -7 q 60 102 72 56 q 56 132 56 116 q 75 208 56 172 q 124 260 94 245 q 225 286 177 286 q 294 270 261 286 z "},";":{"ha":340,"x_min":49,"x_max":379,"o":"m 52 660 q 196 742 83 719 q 295 720 272 730 q 370 650 347 701 q 379 610 379 632 q 351 520 379 575 q 233 464 312 468 q 106 498 157 460 q 49 621 49 541 q 52 660 49 640 m 324 215 l 325 215 q 365 89 365 166 q 351 -8 365 44 q 251 -117 309 -109 q 212 -117 253 -117 q 178 -108 191 -117 q 155 -49 155 -80 q 166 -3 155 -29 q 56 78 80 15 q 54 102 54 90 q 106 231 54 159 q 208 257 150 257 q 324 215 285 257 z "},"<":{"ha":453,"x_min":0,"x_max":0,"o":""},"=":{"ha":647,"x_min":49,"x_max":579,"o":"m 534 734 q 573 637 573 705 q 564 564 573 605 q 468 515 535 520 q 358 513 414 515 q 125 524 281 512 q 53 662 49 564 q 83 715 52 692 q 148 742 110 735 q 222 743 176 746 q 297 743 276 742 q 302 750 300 750 q 310 746 305 750 q 317 742 315 742 q 321 743 320 742 l 534 734 m 549 407 l 550 408 q 573 316 579 350 q 508 227 562 249 q 395 212 475 214 q 278 200 310 211 q 158 208 218 204 q 63 267 89 215 q 50 302 50 283 q 64 349 50 323 q 89 392 76 370 q 195 423 114 410 q 478 443 344 419 q 517 432 497 445 q 549 407 532 419 z "},">":{"ha":453,"x_min":0,"x_max":0,"o":""},"?":{"ha":799,"x_min":14,"x_max":779,"o":"m 745 942 l 743 942 q 779 795 779 863 q 730 671 779 716 q 610 414 622 592 q 512 316 592 340 q 365 293 497 310 q 317 295 344 290 q 274 305 295 301 q 229 410 229 361 q 308 578 229 468 q 391 753 388 688 l 381 764 q 321 696 353 730 q 249 652 290 663 q 204 647 226 647 q 94 678 153 647 q 22 854 14 722 q 271 1065 101 1017 q 323 1074 286 1063 q 379 1084 359 1084 q 745 942 677 1091 m 596 173 l 596 174 q 607 123 607 151 q 591 30 607 99 q 403 -71 523 -71 q 225 26 271 -71 q 217 76 217 50 q 287 222 217 158 q 438 259 359 259 q 596 173 554 259 z "},"@":{"ha":1144,"x_min":102,"x_max":1044,"o":"m 837 334 q 750 359 786 334 q 731 388 743 365 q 708 411 718 411 q 693 396 696 411 q 689 366 690 380 q 646 325 679 340 q 579 309 613 309 q 561 310 569 309 q 354 487 354 350 q 398 603 354 547 q 500 659 443 659 q 541 655 513 659 q 581 651 568 651 q 615 674 611 651 q 643 697 618 697 q 726 639 689 697 q 778 530 752 584 q 836 470 806 470 q 873 530 873 470 q 836 660 873 611 q 718 773 765 753 q 561 791 677 791 q 365 703 449 791 q 281 502 281 615 q 373 294 281 373 q 591 218 460 218 q 705 246 643 218 q 779 275 767 275 q 847 246 816 275 q 878 182 878 218 q 750 79 878 131 q 573 34 637 34 q 244 178 385 34 q 102 509 102 321 q 240 833 102 693 q 560 974 377 974 q 886 866 749 974 q 1042 545 1039 746 q 995 384 1044 434 q 837 334 946 334 m 624 478 q 592 529 624 505 q 532 553 560 553 q 502 539 515 553 q 489 508 489 526 q 515 455 489 474 q 575 436 541 436 q 624 478 624 436 z "},"A":{"ha":893,"x_min":41,"x_max":851,"o":"m 829 120 l 829 118 q 749 37 817 53 q 678 29 715 29 q 569 60 611 29 q 534 112 539 99 q 516 203 516 147 q 392 197 462 206 q 398 161 395 185 q 366 45 398 105 q 251 -11 327 -11 q 159 3 214 -11 l 157 5 q 41 290 41 63 q 44 361 41 305 q 83 696 54 575 q 227 1004 124 867 q 460 1108 308 1108 q 707 1006 624 1108 q 776 866 756 946 q 851 361 851 579 q 829 120 851 233 m 485 477 q 471 821 494 587 q 443 814 462 831 q 417 626 425 699 q 407 482 403 500 q 430 467 414 467 q 458 472 436 467 q 485 477 481 477 z "},"B":{"ha":824,"x_min":48,"x_max":783,"o":"m 776 328 q 663 102 764 180 q 471 11 610 61 q 344 0 410 0 q 68 80 153 0 q 48 493 48 106 q 69 997 48 952 q 357 1078 165 1078 q 441 1073 413 1078 q 664 963 591 1044 q 742 757 738 882 q 682 637 731 684 q 590 579 660 617 q 731 489 678 562 q 776 328 783 415 m 430 798 l 429 797 q 369 832 422 832 q 349 829 351 832 q 331 812 339 828 q 332 632 340 731 l 392 670 q 433 778 433 741 q 430 798 433 784 m 404 336 l 404 335 q 414 388 414 366 q 372 451 414 451 q 327 433 349 451 q 323 368 328 415 q 315 298 315 310 q 317 256 315 290 q 380 287 358 261 q 404 336 389 300 z "},"C":{"ha":792,"x_min":38,"x_max":753,"o":"m 752 350 l 752 349 q 752 330 752 342 q 753 310 753 316 q 602 41 753 112 q 421 1 517 1 q 210 74 291 1 q 39 498 38 225 q 68 771 39 618 q 162 987 90 888 q 265 1067 197 1036 q 410 1097 332 1097 q 578 1051 500 1097 q 700 925 656 1004 q 727 818 726 877 q 700 716 728 763 q 602 647 662 654 q 433 733 507 637 q 428 765 432 737 q 407 786 425 787 l 394 761 q 380 466 380 472 q 383 388 380 426 q 415 338 385 350 q 524 407 447 339 q 629 475 600 475 q 674 466 651 475 q 752 350 752 443 z "},"D":{"ha":772,"x_min":45,"x_max":727,"o":"m 727 598 q 645 259 727 410 q 350 16 546 72 q 159 42 244 10 q 69 125 74 74 q 45 824 45 489 q 50 1001 45 948 q 270 1074 84 1074 q 456 1050 374 1074 q 611 919 542 1010 q 727 598 727 767 m 387 720 q 350 743 368 743 q 330 738 342 743 q 316 733 317 733 q 335 411 331 636 q 401 492 374 438 q 428 599 428 545 q 387 720 428 670 z "},"E":{"ha":699,"x_min":41,"x_max":656,"o":"m 651 662 q 655 620 656 641 q 596 498 655 547 q 482 459 543 452 q 441 460 471 463 q 432 373 444 444 q 460 324 432 340 q 551 324 516 339 q 613 251 607 302 q 579 131 620 192 q 466 30 538 71 q 315 -7 402 -7 q 177 22 238 -7 q 99 98 151 34 q 42 489 44 191 q 71 881 41 660 q 144 1047 89 1009 l 372 1070 q 483 1083 430 1083 q 609 1029 590 1083 q 617 980 617 1008 q 573 885 617 922 q 452 848 530 848 q 422 850 433 848 q 411 784 413 829 q 407 719 408 727 q 436 694 411 700 q 535 726 475 726 q 651 662 605 726 z "},"F":{"ha":675,"x_min":39,"x_max":637,"o":"m 618 598 l 618 599 q 637 534 637 564 q 605 447 637 500 q 504 366 576 383 q 389 357 479 366 q 395 253 388 332 q 403 153 403 167 q 295 7 403 7 q 158 39 252 7 q 63 302 71 128 l 39 765 q 49 916 44 816 q 129 1033 64 1002 q 383 1078 199 1078 q 542 1059 482 1078 q 607 937 607 1002 q 543 810 607 850 q 468 784 534 801 q 402 754 408 768 q 385 664 402 723 q 404 658 392 658 q 454 669 414 658 q 501 679 494 679 q 618 598 575 678 z "},"G":{"ha":784,"x_min":39,"x_max":745,"o":"m 741 831 q 745 784 745 807 q 715 670 745 711 q 576 610 669 606 q 463 689 492 614 l 463 727 q 449 756 463 745 l 441 754 q 354 384 354 534 q 353 349 354 334 q 376 308 354 330 q 451 344 436 313 q 436 380 458 364 q 408 388 414 383 q 392 410 394 395 q 413 483 389 444 l 447 511 q 518 515 460 511 q 595 520 576 520 q 714 481 674 520 q 739 379 739 443 q 709 225 739 304 q 617 78 677 138 q 466 -1 549 10 q 392 -7 423 -7 q 178 71 272 -7 q 76 234 113 125 q 39 481 39 342 q 101 824 39 667 q 266 1048 162 980 q 425 1085 336 1085 q 568 1054 502 1085 q 738 831 727 945 l 741 831 z "},"H":{"ha":866,"x_min":34,"x_max":831,"o":"m 87 994 l 86 994 q 237 1054 146 1054 q 349 1033 313 1054 q 391 910 388 994 q 379 731 383 843 q 428 671 395 671 q 466 684 440 671 q 489 739 481 690 q 478 934 481 810 q 568 1057 483 1005 q 648 1069 584 1066 q 712 1066 696 1070 q 794 974 773 1050 q 809 927 801 950 q 822 836 821 882 q 831 550 831 645 q 761 106 831 349 q 641 11 739 31 q 541 23 579 -3 q 481 136 489 57 q 483 214 478 158 q 486 291 487 270 q 443 325 478 325 q 382 300 408 325 q 357 233 355 274 q 376 136 364 206 q 372 65 383 90 q 319 12 355 29 q 229 1 294 1 q 125 45 166 1 q 68 166 91 82 q 38 374 41 260 q 34 656 34 539 q 87 994 34 916 z "},"I":{"ha":493,"x_min":52,"x_max":443,"o":"m 436 897 q 438 761 436 842 q 441 658 441 681 q 404 176 443 388 q 279 11 380 38 q 238 8 249 8 q 83 135 101 8 q 53 528 52 353 q 82 856 54 714 l 118 948 q 320 1050 189 1050 q 373 1044 350 1050 q 423 980 411 1027 l 436 897 z "},"J":{"ha":689,"x_min":31,"x_max":656,"o":"m 652 577 q 654 459 652 542 q 656 362 656 376 q 639 210 656 268 q 560 72 617 138 q 374 19 500 19 q 264 29 319 19 q 52 211 98 57 q 31 321 31 279 q 68 413 31 372 q 148 479 89 436 q 207 505 184 505 q 241 478 230 505 q 260 408 242 474 q 301 355 274 355 q 350 406 334 355 q 335 663 355 517 l 302 893 q 372 1028 302 983 q 498 1053 463 1053 q 586 1014 557 1053 q 654 577 628 959 l 652 577 z "},"K":{"ha":882,"x_min":44,"x_max":837,"o":"m 140 1040 l 142 1040 q 271 1097 184 1097 q 408 1020 376 1097 q 411 963 411 984 q 406 856 411 935 q 400 763 400 778 q 418 750 406 750 q 433 761 429 750 q 432 771 432 763 q 481 948 432 832 q 611 1107 539 1087 q 818 1021 765 1117 q 837 941 837 987 q 749 679 837 816 q 660 545 719 635 q 727 430 679 513 q 818 172 818 266 q 778 45 818 99 q 675 -3 748 4 q 519 143 610 -10 q 430 327 452 253 q 403 339 425 332 l 394 330 q 408 192 408 242 q 376 54 408 105 q 245 14 323 14 q 140 45 181 14 q 45 470 44 118 q 74 841 45 662 q 140 1040 103 1020 z "},"L":{"ha":645,"x_min":31,"x_max":610,"o":"m 610 214 l 609 214 q 523 59 594 97 q 324 19 425 19 q 35 331 35 19 q 35 411 35 411 q 37 458 35 426 q 38 493 38 482 q 61 933 31 768 q 118 1028 86 1002 q 217 1059 150 1054 q 249 1061 231 1061 q 334 1036 308 1061 q 374 972 344 1025 q 398 743 398 882 q 381 475 398 658 q 379 340 370 349 q 507 366 430 366 q 534 362 526 366 q 592 301 573 349 q 610 211 605 270 l 610 214 z "},"M":{"ha":1076,"x_min":48,"x_max":1028,"o":"m 1028 182 q 999 72 1028 112 q 940 31 976 41 q 884 18 920 26 q 847 11 855 11 q 748 63 788 11 q 707 193 707 116 q 722 332 707 223 q 723 466 734 417 q 681 342 716 445 q 598 182 635 211 q 549 166 577 166 q 504 181 527 166 q 389 477 430 257 q 383 407 383 443 q 394 278 383 387 q 394 154 402 200 q 335 48 383 94 q 244 20 287 20 q 133 74 184 20 q 68 200 78 169 q 48 384 48 261 q 67 784 48 497 q 127 954 74 884 q 272 1050 181 1024 q 547 738 453 1055 q 590 893 554 797 q 707 1066 641 1035 q 816 1085 771 1085 q 930 1039 891 1085 q 1002 916 982 991 q 1020 756 1016 866 q 1023 554 1021 655 q 1028 184 1028 331 l 1028 182 z "},"N":{"ha":908,"x_min":50,"x_max":858,"o":"m 844 803 l 844 805 q 858 507 858 647 q 715 22 858 75 q 664 14 693 14 q 576 27 630 14 q 368 464 508 65 q 392 257 392 359 q 359 78 392 144 q 306 24 344 46 q 231 5 267 1 q 78 143 118 16 q 50 404 50 227 q 79 867 50 749 q 178 1013 101 956 q 279 1046 223 1046 q 339 1036 309 1046 q 494 784 418 994 q 553 584 526 700 q 530 742 539 674 q 513 918 513 862 q 549 1028 513 984 q 664 1078 590 1078 q 829 931 797 1078 q 844 803 836 900 z "},"O":{"ha":885,"x_min":39,"x_max":846,"o":"m 807 240 l 809 238 q 684 64 773 128 q 478 0 595 0 q 142 163 261 0 q 39 501 39 302 q 56 670 39 592 q 373 1070 131 1025 q 419 1074 395 1074 q 631 1002 528 1074 q 769 827 734 930 q 846 477 846 602 q 806 240 846 370 l 807 240 m 470 338 l 470 339 q 509 490 509 346 q 494 643 509 573 q 462 716 479 714 q 407 651 432 724 q 383 489 383 577 q 470 338 383 324 z "},"P":{"ha":779,"x_min":33,"x_max":792,"o":"m 722 926 l 720 925 q 792 696 792 813 q 709 459 792 569 q 404 330 640 366 q 410 246 402 304 q 421 177 421 185 q 394 71 421 128 q 337 23 380 42 q 241 4 294 4 q 115 47 162 4 q 64 166 68 90 q 34 447 33 300 l 34 738 q 39 839 34 750 q 67 974 45 919 q 148 1058 95 1044 q 370 1089 271 1089 q 720 926 611 1089 l 722 926 m 459 679 q 475 742 475 712 q 376 827 475 818 q 369 739 369 769 q 370 677 369 697 q 377 586 373 645 q 408 617 389 596 q 458 681 444 652 l 459 679 z "},"Q":{"ha":880,"x_min":37,"x_max":843,"o":"m 837 1 q 692 -102 822 -75 q 663 -105 679 -105 q 507 1 576 -105 q 355 -4 456 -11 q 177 75 260 3 q 65 254 94 147 q 37 481 37 361 q 249 1050 37 882 q 396 1077 319 1077 q 584 1016 505 1077 q 684 922 618 989 q 810 547 809 792 q 780 271 810 436 q 769 236 780 268 q 757 193 757 204 q 843 26 843 93 q 840 1 843 18 l 837 1 m 466 366 l 429 656 q 406 677 429 678 q 366 592 376 647 q 357 486 357 536 q 358 400 357 436 q 359 365 359 372 q 361 380 361 359 q 364 298 361 350 q 369 295 366 295 q 383 302 374 295 q 425 373 389 355 q 437 362 428 373 q 451 351 447 351 q 463 353 459 349 q 466 366 467 358 z "},"R":{"ha":863,"x_min":42,"x_max":818,"o":"m 816 144 l 814 144 q 750 61 795 103 q 632 1 692 8 q 395 237 516 -11 q 399 176 399 202 q 358 42 399 91 q 233 -1 295 -1 q 184 4 206 -1 q 79 56 103 25 q 46 203 46 97 l 46 257 q 49 501 42 261 q 80 914 57 772 q 225 1054 98 1016 q 460 1089 285 1072 q 746 950 669 1083 q 803 708 805 818 q 742 519 802 595 q 664 447 733 507 q 818 169 818 281 q 816 144 818 161 m 426 779 l 425 779 q 411 782 417 782 q 369 763 406 782 q 365 693 364 757 q 366 551 366 618 q 454 603 418 569 q 490 673 490 636 q 426 779 490 723 z "},"S":{"ha":765,"x_min":38,"x_max":730,"o":"m 290 279 l 291 279 q 342 328 340 291 q 330 354 342 342 q 244 413 319 366 q 153 479 181 452 q 80 583 113 517 q 38 757 38 669 q 139 986 38 885 q 406 1097 251 1097 q 568 1055 496 1097 q 664 955 613 1028 q 688 893 686 922 q 655 810 689 859 l 656 809 q 565 748 613 748 q 520 754 549 748 q 470 831 477 765 q 430 856 467 856 q 396 847 411 856 q 381 792 381 820 q 425 715 381 746 q 614 573 586 600 q 723 370 716 477 q 727 301 724 344 q 516 27 730 125 q 364 -10 436 -10 q 334 -7 353 -10 l 331 -5 q 49 192 69 37 q 42 242 44 227 q 39 251 39 256 q 61 315 39 287 q 110 342 83 342 q 182 310 123 342 q 266 278 242 278 q 289 281 275 278 l 290 279 z "},"T":{"ha":816,"x_min":18,"x_max":798,"o":"m 792 904 l 794 904 q 798 851 798 884 q 765 748 797 783 q 656 716 753 734 q 556 692 558 697 q 587 407 553 677 q 594 298 594 353 q 561 94 594 174 q 441 -4 520 -7 q 263 76 313 0 q 223 257 225 133 q 229 400 223 246 l 236 575 q 253 716 241 656 q 229 714 245 714 q 136 728 182 714 q 50 788 74 749 q 18 893 18 844 q 108 1020 18 975 q 387 1078 223 1078 q 566 1062 472 1078 q 703 1012 611 1046 q 792 904 779 972 z "},"U":{"ha":912,"x_min":44,"x_max":869,"o":"m 862 919 l 863 920 q 869 778 869 856 q 769 200 869 466 q 688 74 743 131 q 573 0 633 18 q 464 -8 517 -8 q 211 63 313 -8 q 74 252 113 129 q 44 508 44 344 q 91 916 44 753 q 156 1006 106 967 q 256 1051 206 1046 q 342 1029 300 1055 q 406 960 385 1002 q 410 891 410 927 q 385 699 410 846 q 361 509 361 551 q 366 437 361 468 q 411 391 374 414 q 475 402 456 385 q 519 502 511 440 q 523 741 517 596 q 541 885 536 858 q 566 1004 551 963 q 678 1081 615 1083 q 786 1036 737 1080 q 862 919 835 993 z "},"V":{"ha":911,"x_min":35,"x_max":876,"o":"m 824 1024 q 876 881 876 987 q 651 140 876 652 q 467 -4 596 16 q 437 -7 449 -7 q 308 20 369 -7 q 218 93 246 48 q 78 436 127 236 q 35 765 35 610 q 52 927 35 877 q 131 1020 72 989 q 227 1044 181 1047 q 357 967 320 1039 q 408 712 388 903 l 426 542 q 462 833 437 640 q 561 1061 486 1025 q 666 1084 610 1084 q 824 1024 760 1084 z "},"W":{"ha":1155,"x_min":39,"x_max":1115,"o":"m 128 1027 q 221 1061 172 1061 q 355 945 324 1061 q 374 817 361 923 l 379 580 q 399 568 388 568 q 413 615 410 581 q 415 656 415 656 q 467 802 432 705 q 583 901 501 886 q 670 850 641 903 q 704 719 690 812 q 712 628 715 645 q 715 562 703 598 q 735 573 734 558 q 833 1006 753 871 q 888 1062 858 1048 q 945 1078 907 1074 q 1070 1028 1012 1085 q 1115 906 1115 984 q 1093 765 1115 876 q 1021 374 1070 635 q 878 34 976 144 q 784 5 843 5 q 659 38 716 5 q 598 140 613 76 q 584 266 586 191 q 575 388 581 355 q 551 399 561 400 q 534 236 547 379 q 502 76 523 128 q 376 -10 470 -3 q 144 121 225 -20 q 67 327 95 189 q 41 630 39 466 q 128 1027 44 960 z "},"X":{"ha":852,"x_min":37,"x_max":814,"o":"m 805 803 l 803 805 q 813 886 814 852 q 715 1065 810 993 q 626 1102 666 1102 q 474 930 500 1102 q 453 780 467 880 q 433 784 447 778 q 436 813 436 803 q 404 947 436 873 q 330 1054 372 1021 q 237 1073 285 1073 q 142 1039 174 1073 q 90 892 90 986 q 114 719 90 827 q 173 624 120 694 q 221 526 222 557 q 103 364 181 471 q 38 182 39 270 q 95 39 37 97 q 193 4 132 4 q 289 22 237 4 q 353 98 336 44 q 403 214 377 178 q 423 215 415 230 q 494 31 425 94 q 621 -3 553 -3 q 707 16 670 -3 q 778 167 779 54 q 769 259 778 215 q 686 395 760 312 q 632 526 626 463 q 728 660 637 535 q 805 803 791 748 z "},"Y":{"ha":813,"x_min":27,"x_max":786,"o":"m 97 1048 l 98 1048 q 172 1066 132 1066 q 293 999 256 1066 q 350 880 323 967 q 391 756 385 765 q 531 1091 451 1012 q 611 1106 569 1106 q 714 1072 675 1106 q 786 915 786 1024 q 716 671 773 802 q 602 447 682 595 q 600 274 602 388 q 569 106 598 173 q 451 -3 534 26 q 419 -5 429 -5 q 268 80 310 -5 q 249 223 249 135 q 251 302 249 266 q 251 376 252 351 q 27 918 27 757 q 97 1048 27 1013 z "},"Z":{"ha":847,"x_min":37,"x_max":810,"o":"m 806 957 l 810 916 q 455 361 810 664 q 470 332 444 338 q 632 358 520 358 q 733 347 700 358 q 798 234 797 325 q 790 185 798 212 q 699 44 756 74 q 396 5 541 5 q 128 54 236 5 q 37 181 61 84 q 90 413 42 315 q 256 630 138 512 q 377 752 361 694 q 349 758 366 758 q 306 754 330 758 q 270 748 283 750 q 225 745 256 745 q 94 818 136 745 q 79 888 79 844 q 144 1047 79 1005 q 500 1103 231 1103 q 648 1092 633 1103 q 745 1046 699 1084 q 806 960 791 1008 l 806 957 z "},"[":{"ha":453,"x_min":0,"x_max":0,"o":""},"\\":{"ha":453,"x_min":0,"x_max":0,"o":""},"]":{"ha":453,"x_min":0,"x_max":0,"o":""},"^":{"ha":453,"x_min":0,"x_max":0,"o":""},"_":{"ha":802,"x_min":46,"x_max":752,"o":"m 752 49 l 752 48 q 637 7 752 5 q 482 16 576 8 q 370 20 426 22 q 309 19 298 19 q 267 23 287 22 q 207 23 234 26 q 110 15 136 15 q 52 56 46 15 q 159 110 60 110 q 310 101 255 110 q 418 89 381 89 q 458 84 417 89 q 524 83 492 80 q 647 91 618 91 q 752 49 752 91 z "},"`":{"ha":323,"x_min":31,"x_max":315,"o":"m 53 1091 q 42 1076 53 1091 q 42 1017 31 1061 q 197 854 82 941 q 219 847 206 852 q 238 842 231 842 q 289 871 263 842 q 310 933 315 900 q 287 1038 298 984 q 219 1110 267 1096 q 127 1122 138 1122 q 53 1091 75 1122 z "},"a":{"ha":893,"x_min":41,"x_max":851,"o":"m 829 120 l 829 118 q 749 37 817 53 q 678 29 715 29 q 569 60 611 29 q 534 112 539 99 q 516 203 516 147 q 392 197 462 206 q 398 161 395 185 q 366 45 398 105 q 251 -11 327 -11 q 159 3 214 -11 l 157 5 q 41 290 41 63 q 44 361 41 305 q 83 696 54 575 q 227 1004 124 867 q 460 1108 308 1108 q 707 1006 624 1108 q 776 866 756 946 q 851 361 851 579 q 829 120 851 233 m 485 477 q 471 821 494 587 q 443 814 462 831 q 417 626 425 699 q 407 482 403 500 q 430 467 414 467 q 458 472 436 467 q 485 477 481 477 z "},"b":{"ha":824,"x_min":48,"x_max":783,"o":"m 776 328 q 663 102 764 180 q 471 11 610 61 q 344 0 410 0 q 68 80 153 0 q 48 493 48 106 q 69 997 48 952 q 357 1078 165 1078 q 441 1073 413 1078 q 664 963 591 1044 q 742 757 738 882 q 682 637 731 684 q 590 579 660 617 q 731 489 678 562 q 776 328 783 415 m 430 798 l 429 797 q 369 832 422 832 q 349 829 351 832 q 331 812 339 828 q 332 632 340 731 l 392 670 q 433 778 433 741 q 430 798 433 784 m 404 336 l 404 335 q 414 388 414 366 q 372 451 414 451 q 327 433 349 451 q 323 368 328 415 q 315 298 315 310 q 317 256 315 290 q 380 287 358 261 q 404 336 389 300 z "},"c":{"ha":792,"x_min":38,"x_max":753,"o":"m 752 350 l 752 349 q 752 330 752 342 q 753 310 753 316 q 602 41 753 112 q 421 1 517 1 q 210 74 291 1 q 39 498 38 225 q 68 771 39 618 q 162 987 90 888 q 265 1067 197 1036 q 410 1097 332 1097 q 578 1051 500 1097 q 700 925 656 1004 q 727 818 726 877 q 700 716 728 763 q 602 647 662 654 q 433 733 507 637 q 428 765 432 737 q 407 786 425 787 l 394 761 q 380 466 380 472 q 383 388 380 426 q 415 338 385 350 q 524 407 447 339 q 629 475 600 475 q 674 466 651 475 q 752 350 752 443 z "},"d":{"ha":772,"x_min":45,"x_max":727,"o":"m 727 598 q 645 259 727 410 q 350 16 546 72 q 159 42 244 10 q 69 125 74 74 q 45 824 45 489 q 50 1001 45 948 q 270 1074 84 1074 q 456 1050 374 1074 q 611 919 542 1010 q 727 598 727 767 m 387 720 q 350 743 368 743 q 330 738 342 743 q 316 733 317 733 q 335 411 331 636 q 401 492 374 438 q 428 599 428 545 q 387 720 428 670 z "},"e":{"ha":699,"x_min":41,"x_max":656,"o":"m 651 662 q 655 620 656 641 q 596 498 655 547 q 482 459 543 452 q 441 460 471 463 q 432 373 444 444 q 460 324 432 340 q 551 324 516 339 q 613 251 607 302 q 579 131 620 192 q 466 30 538 71 q 315 -7 402 -7 q 177 22 238 -7 q 99 98 151 34 q 42 489 44 191 q 71 881 41 660 q 144 1047 89 1009 l 372 1070 q 483 1083 430 1083 q 609 1029 590 1083 q 617 980 617 1008 q 573 885 617 922 q 452 848 530 848 q 422 850 433 848 q 411 784 413 829 q 407 719 408 727 q 436 694 411 700 q 535 726 475 726 q 651 662 605 726 z "},"f":{"ha":675,"x_min":39,"x_max":637,"o":"m 618 598 l 618 599 q 637 534 637 564 q 605 447 637 500 q 504 366 576 383 q 389 357 479 366 q 395 253 388 332 q 403 153 403 167 q 295 7 403 7 q 158 39 252 7 q 63 302 71 128 l 39 765 q 49 916 44 816 q 129 1033 64 1002 q 383 1078 199 1078 q 542 1059 482 1078 q 607 937 607 1002 q 543 810 607 850 q 468 784 534 801 q 402 754 408 768 q 385 664 402 723 q 404 658 392 658 q 454 669 414 658 q 501 679 494 679 q 618 598 575 678 z "},"g":{"ha":784,"x_min":39,"x_max":745,"o":"m 741 831 q 745 784 745 807 q 715 670 745 711 q 576 610 669 606 q 463 689 492 614 l 463 727 q 449 756 463 745 l 441 754 q 354 384 354 534 q 353 349 354 334 q 376 308 354 330 q 451 344 436 313 q 436 380 458 364 q 408 388 414 383 q 392 410 394 395 q 413 483 389 444 l 447 511 q 518 515 460 511 q 595 520 576 520 q 714 481 674 520 q 739 379 739 443 q 709 225 739 304 q 617 78 677 138 q 466 -1 549 10 q 392 -7 423 -7 q 178 71 272 -7 q 76 234 113 125 q 39 481 39 343 q 101 824 39 667 q 266 1048 162 980 q 425 1085 336 1085 q 568 1054 502 1085 q 738 831 727 945 l 741 831 z "},"h":{"ha":866,"x_min":34,"x_max":831,"o":"m 87 994 l 86 994 q 237 1054 146 1054 q 349 1033 313 1054 q 391 910 388 994 q 379 731 383 843 q 428 671 395 671 q 466 684 440 671 q 489 739 481 690 q 478 934 481 810 q 568 1057 483 1005 q 648 1069 584 1066 q 712 1066 696 1070 q 794 974 773 1050 q 809 927 801 950 q 822 836 821 882 q 831 550 831 645 q 761 106 831 349 q 641 11 739 31 q 541 23 579 -3 q 481 136 489 57 q 483 214 478 158 q 486 291 487 270 q 443 325 478 325 q 382 300 408 325 q 357 233 355 274 q 376 136 364 206 q 372 65 383 90 q 319 12 355 29 q 229 1 294 1 q 125 45 166 1 q 68 166 91 82 q 38 374 41 260 q 34 656 34 539 q 87 994 34 916 z "},"i":{"ha":493,"x_min":52,"x_max":443,"o":"m 436 897 q 438 761 436 842 q 441 658 441 681 q 404 176 443 388 q 279 11 380 38 q 238 8 249 8 q 83 135 101 8 q 53 528 52 353 q 82 856 54 714 l 118 948 q 320 1050 189 1050 q 373 1044 350 1050 q 423 980 411 1027 l 436 897 z "},"j":{"ha":689,"x_min":31,"x_max":656,"o":"m 652 577 q 654 459 652 542 q 656 362 656 376 q 639 210 656 268 q 560 72 617 138 q 374 19 500 19 q 264 29 319 19 q 52 211 98 57 q 31 321 31 279 q 68 413 31 372 q 148 479 89 436 q 207 505 184 505 q 241 478 230 505 q 260 408 242 474 q 301 355 274 355 q 350 406 334 355 q 335 663 355 517 l 302 893 q 372 1028 302 983 q 498 1053 463 1053 q 586 1014 557 1053 q 654 577 628 959 l 652 577 z "},"k":{"ha":882,"x_min":44,"x_max":837,"o":"m 140 1040 l 142 1040 q 271 1097 184 1097 q 408 1020 376 1097 q 411 963 411 984 q 406 856 411 935 q 400 763 400 778 q 418 750 406 750 q 433 761 429 750 q 432 771 432 763 q 481 948 432 832 q 611 1107 539 1087 q 818 1021 765 1117 q 837 941 837 987 q 749 679 837 816 q 660 545 719 635 q 727 430 679 513 q 818 172 818 266 q 778 45 818 99 q 675 -3 748 4 q 519 143 610 -10 q 430 327 452 253 q 403 339 425 332 l 394 330 q 408 192 408 242 q 376 54 408 105 q 245 14 323 14 q 140 45 181 14 q 45 470 44 118 q 74 841 45 662 q 140 1040 103 1020 z "},"l":{"ha":645,"x_min":31,"x_max":610,"o":"m 610 214 l 609 214 q 523 59 594 97 q 324 19 425 19 q 35 331 35 19 q 35 411 35 411 q 37 458 35 426 q 38 493 38 482 q 61 933 31 768 q 118 1028 86 1002 q 217 1059 150 1054 q 249 1061 231 1061 q 334 1036 308 1061 q 374 972 344 1025 q 398 743 398 882 q 381 475 398 658 q 379 340 370 349 q 507 366 430 366 q 534 362 526 366 q 592 301 573 349 q 610 211 605 270 l 610 214 z "},"m":{"ha":1076,"x_min":48,"x_max":1028,"o":"m 1028 182 q 999 72 1028 112 q 940 31 976 41 q 884 18 920 26 q 847 11 855 11 q 748 63 788 11 q 707 193 707 116 q 722 332 707 223 q 723 466 734 417 q 681 342 716 445 q 598 182 635 211 q 549 166 577 166 q 504 181 527 166 q 389 477 430 257 q 383 407 383 443 q 394 278 383 387 q 394 154 402 200 q 335 48 383 94 q 244 20 287 20 q 133 74 184 20 q 68 200 78 169 q 48 384 48 261 q 67 784 48 497 q 127 954 74 884 q 272 1050 181 1024 q 547 738 453 1055 q 590 893 554 797 q 707 1066 641 1035 q 816 1085 771 1085 q 930 1039 891 1085 q 1002 916 982 991 q 1020 756 1016 866 q 1023 554 1021 655 q 1028 184 1028 331 l 1028 182 z "},"n":{"ha":908,"x_min":50,"x_max":858,"o":"m 844 803 l 844 805 q 858 507 858 647 q 715 22 858 75 q 664 14 693 14 q 576 27 630 14 q 368 464 508 65 q 392 257 392 359 q 359 78 392 144 q 306 24 344 46 q 231 5 267 1 q 78 143 118 16 q 50 404 50 227 q 79 867 50 749 q 178 1013 101 956 q 279 1046 223 1046 q 339 1036 309 1046 q 494 784 418 994 q 553 584 526 700 q 530 742 539 674 q 513 918 513 862 q 549 1028 513 984 q 664 1078 590 1078 q 829 931 797 1078 q 844 803 836 900 z "},"o":{"ha":885,"x_min":39,"x_max":846,"o":"m 807 240 l 809 238 q 684 64 773 128 q 478 0 595 0 q 142 163 261 0 q 39 501 39 302 q 56 670 39 592 q 373 1070 131 1025 q 419 1074 395 1074 q 631 1002 528 1074 q 769 827 734 930 q 846 477 846 602 q 806 240 846 370 l 807 240 m 470 338 l 470 339 q 509 490 509 346 q 494 643 509 573 q 462 716 479 714 q 407 651 432 724 q 383 489 383 577 q 470 338 383 324 z "},"p":{"ha":779,"x_min":33,"x_max":792,"o":"m 722 926 l 720 925 q 792 696 792 813 q 709 459 792 569 q 404 330 640 366 q 410 246 402 304 q 421 177 421 185 q 394 71 421 128 q 337 23 380 42 q 241 4 294 4 q 115 47 162 4 q 64 166 68 90 q 34 447 33 300 l 34 738 q 39 839 34 750 q 67 974 45 919 q 148 1058 95 1044 q 370 1089 271 1089 q 720 926 611 1089 l 722 926 m 459 679 q 475 742 475 712 q 376 827 475 818 q 369 739 369 769 q 370 677 369 697 q 377 586 373 645 q 408 617 389 596 q 458 681 444 652 l 459 679 z "},"q":{"ha":880,"x_min":37,"x_max":843,"o":"m 837 1 q 692 -102 822 -75 q 663 -105 679 -105 q 507 1 576 -105 q 355 -4 456 -11 q 177 75 260 3 q 65 254 94 147 q 37 481 37 361 q 249 1050 37 882 q 396 1077 319 1077 q 584 1016 505 1077 q 684 922 618 989 q 810 547 809 792 q 780 271 810 436 q 769 236 780 268 q 757 193 757 204 q 843 26 843 93 q 840 1 843 18 l 837 1 m 466 366 l 429 656 q 406 677 429 678 q 366 592 376 647 q 357 486 357 536 q 358 400 357 436 q 359 365 359 372 q 361 380 361 359 q 364 298 361 350 q 369 295 366 295 q 383 302 374 295 q 425 373 389 355 q 437 362 428 373 q 451 351 447 351 q 463 353 459 349 q 466 366 467 358 z "},"r":{"ha":863,"x_min":42,"x_max":818,"o":"m 816 144 l 814 144 q 750 61 795 103 q 632 1 692 8 q 395 237 516 -11 q 399 176 399 202 q 358 42 399 91 q 233 -1 295 -1 q 184 4 206 -1 q 79 56 103 25 q 46 203 46 97 l 46 257 q 49 501 42 261 q 80 914 57 772 q 225 1054 98 1016 q 460 1089 285 1072 q 746 950 669 1083 q 803 708 805 818 q 742 519 802 595 q 664 447 733 507 q 818 169 818 281 q 816 144 818 161 m 426 779 l 425 779 q 411 782 417 782 q 369 763 406 782 q 365 693 364 757 q 366 551 366 618 q 454 603 418 569 q 490 673 490 636 q 426 779 490 723 z "},"s":{"ha":765,"x_min":38,"x_max":730,"o":"m 290 279 l 291 279 q 342 328 340 291 q 330 354 342 342 q 244 413 319 366 q 153 479 181 452 q 80 583 113 517 q 38 757 38 669 q 139 986 38 885 q 406 1097 251 1097 q 568 1055 496 1097 q 664 955 613 1028 q 688 893 686 922 q 655 810 689 859 l 656 809 q 565 748 613 748 q 520 754 549 748 q 470 831 477 765 q 430 856 467 856 q 396 847 411 856 q 381 792 381 820 q 425 715 381 746 q 614 573 586 600 q 723 370 716 477 q 727 301 724 344 q 516 27 730 125 q 364 -10 436 -10 q 334 -7 353 -10 l 331 -5 q 49 192 69 37 q 42 242 44 227 q 39 251 39 256 q 61 315 39 287 q 110 342 83 342 q 182 310 123 342 q 266 278 242 278 q 289 281 275 278 l 290 279 z "},"t":{"ha":816,"x_min":18,"x_max":798,"o":"m 792 904 l 794 904 q 798 851 798 884 q 765 748 797 783 q 656 716 753 734 q 556 692 558 697 q 587 407 553 677 q 594 298 594 353 q 561 94 594 174 q 441 -4 520 -7 q 263 76 313 0 q 223 257 225 133 q 229 400 223 246 l 236 575 q 253 716 241 656 q 229 714 245 714 q 136 728 182 714 q 50 788 74 749 q 18 893 18 844 q 108 1020 18 975 q 387 1078 223 1078 q 566 1062 472 1078 q 703 1012 611 1046 q 792 904 779 972 z "},"u":{"ha":912,"x_min":44,"x_max":869,"o":"m 862 919 l 863 920 q 869 778 869 856 q 769 200 869 466 q 688 74 743 131 q 573 0 633 18 q 464 -8 517 -8 q 211 63 313 -8 q 74 252 113 129 q 44 508 44 344 q 91 916 44 753 q 156 1006 106 967 q 256 1051 206 1046 q 342 1029 300 1055 q 406 960 385 1002 q 410 891 410 927 q 385 699 410 846 q 361 509 361 551 q 366 437 361 468 q 411 391 374 414 q 475 402 456 385 q 519 502 511 440 q 523 741 517 595 q 541 885 536 858 q 566 1004 551 963 q 678 1081 615 1083 q 786 1036 737 1080 q 862 919 835 993 z "},"v":{"ha":911,"x_min":35,"x_max":876,"o":"m 824 1024 q 876 881 876 987 q 651 140 876 652 q 467 -4 596 16 q 437 -7 449 -7 q 308 20 369 -7 q 218 93 246 48 q 78 436 127 236 q 35 765 35 610 q 52 927 35 877 q 131 1020 72 989 q 227 1044 181 1047 q 357 967 320 1039 q 408 712 388 903 l 426 542 q 462 833 437 640 q 561 1061 486 1025 q 666 1084 610 1084 q 824 1024 760 1084 z "},"w":{"ha":1155,"x_min":39,"x_max":1115,"o":"m 128 1027 q 221 1061 172 1061 q 355 945 324 1061 q 374 817 361 923 l 379 580 q 399 568 388 568 q 413 615 410 581 q 415 656 415 656 q 467 802 432 705 q 583 901 501 886 q 670 850 641 903 q 704 719 690 812 q 712 628 715 645 q 715 562 703 598 q 735 573 734 558 q 833 1006 753 871 q 888 1062 858 1048 q 945 1078 907 1074 q 1070 1028 1012 1085 q 1115 906 1115 984 q 1093 765 1115 876 q 1021 374 1070 635 q 878 34 976 144 q 784 5 843 5 q 659 38 716 5 q 598 140 613 76 q 584 266 586 191 q 575 388 581 355 q 551 399 561 400 q 534 236 547 379 q 502 76 523 128 q 376 -10 470 -3 q 144 121 225 -20 q 67 327 95 189 q 41 630 39 466 q 128 1027 44 960 z "},"x":{"ha":852,"x_min":37,"x_max":814,"o":"m 805 803 l 803 805 q 813 886 814 852 q 715 1065 810 993 q 626 1102 666 1102 q 474 930 500 1102 q 453 780 467 880 q 433 784 447 778 q 436 813 436 803 q 404 947 436 873 q 330 1054 372 1021 q 237 1073 285 1073 q 142 1039 174 1073 q 90 892 90 986 q 114 719 90 827 q 173 624 120 694 q 221 526 222 557 q 103 364 181 471 q 38 182 39 270 q 95 39 37 97 q 193 4 132 4 q 289 22 237 4 q 353 98 336 44 q 403 214 377 178 q 423 215 415 230 q 494 31 425 94 q 621 -3 553 -3 q 707 16 670 -3 q 778 167 779 54 q 769 259 778 215 q 686 395 760 312 q 632 526 626 463 q 728 660 637 535 q 805 803 791 748 z "},"y":{"ha":813,"x_min":27,"x_max":786,"o":"m 97 1048 l 98 1048 q 172 1066 132 1066 q 293 999 256 1066 q 350 880 323 967 q 391 756 385 765 q 531 1091 451 1012 q 611 1106 569 1106 q 714 1072 675 1106 q 786 915 786 1024 q 716 671 773 802 q 602 447 682 595 q 600 274 602 388 q 569 106 598 173 q 451 -3 534 26 q 419 -5 429 -5 q 268 80 310 -5 q 249 223 249 135 q 251 302 249 266 q 251 376 252 351 q 27 918 27 757 q 97 1048 27 1013 z "},"z":{"ha":847,"x_min":37,"x_max":810,"o":"m 806 957 l 810 916 q 455 361 810 664 q 470 332 444 338 q 632 358 520 358 q 733 347 700 358 q 798 234 797 325 q 790 185 798 212 q 699 44 756 74 q 396 5 541 5 q 128 54 236 5 q 37 181 61 84 q 90 413 42 315 q 256 630 138 512 q 377 752 361 694 q 349 758 366 758 q 306 754 330 758 q 270 748 283 750 q 225 745 256 745 q 94 818 136 745 q 79 888 79 844 q 144 1047 79 1005 q 500 1103 231 1103 q 648 1092 633 1103 q 745 1046 699 1084 q 806 960 791 1008 l 806 957 z "},"¢":{"ha":260,"x_min":44,"x_max":293,"o":"m 289 941 q 266 904 281 904 q 244 908 261 904 q 221 911 226 911 q 172 897 191 911 q 153 863 153 882 q 193 827 153 839 q 204 824 203 824 q 233 833 210 824 q 264 840 256 842 q 290 795 290 836 q 257 750 290 765 q 200 752 226 735 q 195 719 197 741 q 206 611 195 703 q 218 493 218 520 q 189 415 217 436 q 133 466 150 418 q 113 600 124 496 q 123 685 113 632 q 133 753 133 745 q 69 784 95 752 q 45 856 44 817 q 114 965 48 944 q 110 1055 102 1033 q 151 1084 121 1084 q 197 1044 189 1084 l 191 974 q 234 983 210 983 q 277 971 261 983 q 289 941 293 959 z "},"•":{"ha":655,"x_min":163,"x_max":511,"o":"m 167 611 l 169 611 q 346 723 197 726 q 437 697 407 714 q 502 621 478 674 q 511 575 511 603 q 482 458 511 511 q 344 398 436 396 q 218 441 268 398 q 163 569 163 487 q 167 611 163 590 z "}," ":{"ha":453,"x_min":0,"x_max":0,"o":""},"“":{"ha":453,"x_min":0,"x_max":0,"o":""},"”":{"ha":453,"x_min":0,"x_max":0,"o":""},"‘":{"ha":453,"x_min":0,"x_max":0,"o":""},"’":{"ha":453,"x_min":0,"x_max":0,"o":""}}}
